<?xml version="1.0" standalone="no"?>
<!DOCTYPE svg PUBLIC "-//W3C//DTD SVG 20010904//EN"
 "http://www.w3.org/TR/2001/REC-SVG-20010904/DTD/svg10.dtd">
<svg version="1.0" xmlns="http://www.w3.org/2000/svg"
 width="875.000000pt" height="875.000000pt" viewBox="0 0 875.000000 875.000000"
 preserveAspectRatio="xMidYMid meet">
<metadata>
Created by potrace 1.11, written by Peter Selinger 2001-2013
</metadata>
<g transform="translate(0.000000,875.000000) scale(0.100000,-0.100000)"
fill="#000000" stroke="none">
<path d="M2649 8746 c-2 -2 -40 -7 -84 -11 -192 -16 -559 -100 -705 -162 -8
-3 -17 -7 -20 -8 -12 -4 -48 -19 -87 -36 -23 -11 -45 -19 -48 -19 -11 0 -228
-111 -299 -153 -85 -49 -290 -188 -306 -207 -3 -3 -40 -34 -83 -69 -131 -106
-295 -278 -441 -461 -6 -8 -36 -51 -67 -95 -277 -403 -448 -867 -496 -1350
-10 -99 -11 -3504 -1 -3598 4 -37 10 -82 12 -100 3 -18 8 -49 11 -70 20 -145
100 -452 144 -552 5 -11 16 -39 25 -62 35 -95 136 -301 187 -382 16 -25 32
-54 35 -63 4 -10 10 -18 15 -18 5 0 9 -5 9 -11 0 -5 21 -40 46 -77 232 -333
559 -643 871 -825 30 -18 69 -40 86 -51 248 -148 673 -295 962 -332 28 -3 52
-8 55 -9 26 -16 431 -20 1910 -20 1507 0 1818 3 1905 21 11 3 39 7 61 10 42 5
68 9 114 19 14 3 34 7 45 9 11 2 63 15 115 29 792 209 1454 742 1819 1467 58
115 83 174 146 335 5 11 9 25 10 30 2 6 14 45 28 89 29 88 82 315 92 391 3 28
12 95 20 150 11 82 13 414 11 1855 -2 965 -5 1766 -8 1780 -3 14 -9 47 -12 74
-102 838 -599 1609 -1329 2060 -274 170 -608 304 -892 361 -22 4 -49 10 -60
12 -11 2 -60 10 -110 18 -49 8 -110 17 -135 21 -47 7 -3543 17 -3551 10z"/>
</g>
</svg>
